HIERARCHY
ROOT hip
{
  OFFSET 0 0 0
  CHANNELS 6 Xposition Yposition Zposition Zrotation Yrotation Xrotation
  JOINT abdomen
  {
    OFFSET 0 20.6881 -0.73152
    CHANNELS 3 Zrotation Xrotation Yrotation
    JOINT chest
    {
      OFFSET 0 11.7043 -0.48768
      CHANNELS 3 Zrotation Xrotation Yrotation
      JOINT neck
      {
        OFFSET 0 22.1894 -2.19456
        CHANNELS 3 Zrotation Xrotation Yrotation
        JOINT head
        {
          OFFSET -0.24384 7.07133 1.2192
          CHANNELS 3 Zrotation Xrotation Yrotation
          JOINT leftEye
          {
            OFFSET 4.14528 8.04674 8.04672
            CHANNELS 3 Zrotation Xrotation Yrotation
            End Site
            {
              OFFSET 1 0 0
            }
          }
          JOINT rightEye
          {
            OFFSET -3.6576 8.04674 8.04672
            CHANNELS 3 Zrotation Xrotation Yrotation
            End Site
            {
              OFFSET 1 0 0
            }
          }
        }
      }
      JOINT rCollar
      {
        OFFSET -2.68224 19.2634 -4.8768
        CHANNELS 3 Zrotation Xrotation Yrotation
        JOINT rShldr
        {
          OFFSET -8.77824 -1.95073 1.46304
          CHANNELS 3 Zrotation Xrotation Yrotation
          JOINT rForeArm
          {
            OFFSET -28.1742 -1.7115 0.48768
            CHANNELS 3 Zrotation Xrotation Yrotation
            JOINT rHand
            {
              OFFSET -22.5879 0.773209 7.07136
              CHANNELS 3 Zrotation Xrotation Yrotation
              JOINT rThumb1
              {
                OFFSET -1.2192 -0.487915 3.41376
                CHANNELS 3 Zrotation Xrotation Yrotation
                JOINT rThumb2
                {
                  OFFSET -3.37035 -0.52449 3.41376
                  CHANNELS 3 Zrotation Xrotation Yrotation
                  End Site
                  {
                    OFFSET -1.78271 -1.18214 1.43049
                  }
                }
              }
              JOINT rIndex1
              {
                OFFSET -7.75947 0.938293 5.60832
                CHANNELS 3 Zrotation Xrotation Yrotation
                JOINT rIndex2
                {
                  OFFSET -2.54057 -0.884171 1.56538
                  CHANNELS 3 Zrotation Xrotation Yrotation
                  End Site
                  {
                    OFFSET -1.62519 -0.234802 1.16502
                  }
                }
              }
              JOINT rMid1
              {
                OFFSET -8.24714 1.18213 3.41376
                CHANNELS 3 Zrotation Xrotation Yrotation
                JOINT rMid2
                {
                  OFFSET -3.10165 -0.590103 1.0647
                  CHANNELS 3 Zrotation Xrotation Yrotation
                  End Site
                  {
                    OFFSET -2.48547 -0.328903 0.83742
                  }
                }
              }
              JOINT rRing1
              {
                OFFSET -8.82822 0.546677 1.51678
                CHANNELS 3 Zrotation Xrotation Yrotation
                JOINT rRing2
                {
                  OFFSET -2.60934 -0.819778 -0.0198488
                  CHANNELS 3 Zrotation Xrotation Yrotation
                  End Site
                  {
                    OFFSET -2.33842 -0.294052 0.168128
                  }
                }
              }
              JOINT rPinky1
              {
                OFFSET -8.27202 -0.0477905 -0.4584
                CHANNELS 3 Zrotation Xrotation Yrotation
                JOINT rPinky2
                {
                  OFFSET -1.82734 -0.647385 -0.700984
                  CHANNELS 3 Zrotation Xrotation Yrotation
                  End Site
                  {
                    OFFSET -1.69225 -0.51767 -0.607171
                  }
                }
              }
            }
          }
        }
      }
      JOINT lCollar
      {
        OFFSET 2.68224 19.2634 -4.8768
        CHANNELS 3 Zrotation Xrotation Yrotation
        JOINT lShldr
        {
          OFFSET 8.77824 -1.95073 1.46304
          CHANNELS 3 Zrotation Xrotation Yrotation
          JOINT lForeArm
          {
            OFFSET 28.1742 -1.7115 0.48768
            CHANNELS 3 Zrotation Xrotation Yrotation
            JOINT lHand
            {
              OFFSET 22.5879 0.773209 7.07136
              CHANNELS 3 Zrotation Xrotation Yrotation
              JOINT lThumb1
              {
                OFFSET 1.2192 -0.487915 3.41376
                CHANNELS 3 Zrotation Xrotation Yrotation
                JOINT lThumb2
                {
                  OFFSET 3.37035 -0.52449 3.41376
                  CHANNELS 3 Zrotation Xrotation Yrotation
                  End Site
                  {
                    OFFSET 1.78271 -1.18214 1.43049
                  }
                }
              }
              JOINT lIndex1
              {
                OFFSET 7.75947 0.938293 5.60832
                CHANNELS 3 Zrotation Xrotation Yrotation
                JOINT lIndex2
                {
                  OFFSET 2.54057 -0.884171 1.56538
                  CHANNELS 3 Zrotation Xrotation Yrotation
                  End Site
                  {
                    OFFSET 1.62519 -0.234802 1.16502
                  }
                }
              }
              JOINT lMid1
              {
                OFFSET 8.24714 1.18213 3.41376
                CHANNELS 3 Zrotation Xrotation Yrotation
                JOINT lMid2
                {
                  OFFSET 3.10165 -0.590103 1.0647
                  CHANNELS 3 Zrotation Xrotation Yrotation
                  End Site
                  {
                    OFFSET 2.48547 -0.328903 0.83742
                  }
                }
              }
              JOINT lRing1
              {
                OFFSET 8.82822 0.546677 1.51678
                CHANNELS 3 Zrotation Xrotation Yrotation
                JOINT lRing2
                {
                  OFFSET 2.60934 -0.819778 -0.0198488
                  CHANNELS 3 Zrotation Xrotation Yrotation
                  End Site
                  {
                    OFFSET 2.33842 -0.294052 0.168128
                  }
                }
              }
              JOINT lPinky1
              {
                OFFSET 8.27202 -0.0477905 -0.4584
                CHANNELS 3 Zrotation Xrotation Yrotation
                JOINT lPinky2
                {
                  OFFSET 1.82734 -0.647385 -0.700984
                  CHANNELS 3 Zrotation Xrotation Yrotation
                  End Site
                  {
                    OFFSET 1.69225 -0.51767 -0.607171
                  }
                }
              }
            }
          }
        }
      }
    }
  }
  JOINT rButtock
  {
    OFFSET -8.77824 4.35084 1.2192
    CHANNELS 3 Zrotation Xrotation Yrotation
    JOINT rThigh
    {
      OFFSET 0 -1.70687 -2.19456
      CHANNELS 3 Zrotation Xrotation Yrotation
      JOINT rShin
      {
        OFFSET 0 -36.8199 0.73152
        CHANNELS 3 Zrotation Xrotation Yrotation
        JOINT rFoot
        {
          OFFSET 0.73152 -45.1104 -5.12064
          CHANNELS 3 Zrotation Xrotation Yrotation
          End Site
          {
            OFFSET -1.1221 -3.69964 12.103
          }
        }
      }
    }
  }
  JOINT lButtock
  {
    OFFSET 8.77824 4.35084 1.2192
    CHANNELS 3 Zrotation Xrotation Yrotation
    JOINT lThigh
    {
      OFFSET 0 -1.70687 -2.19456
      CHANNELS 3 Zrotation Xrotation Yrotation
      JOINT lShin
      {
        OFFSET 0 -36.8199 0.73152
        CHANNELS 3 Zrotation Xrotation Yrotation
        JOINT lFoot
        {
          OFFSET -0.73152 -45.1104 -5.12064
          CHANNELS 3 Zrotation Xrotation Yrotation
          End Site
          {
            OFFSET 1.1221 -3.69964 12.103
          }
        }
      }
    }
  }
}
MOTION
Frames:	7
Frame Time:	0.00833333
2.55344 82.6276 55.001 -7.6867 16.5056 6.1669 6.01347 -13.934 5.06912 -3.24409 -10.6525 0.74682 0.033412 8.48591 1.84567 11.7708 13.7772 2.82918 -0.0 0.0 0.0 -0.0 0.0 0.0 -2.406e-13 2.10317e-13 -4.04033e-13 80.6535 -2.03061 -14.8139 -12.132 -5.54165 21.8659 -2.81138 42.1011 7.29597 3.48718e-09 -5.29751e-09 2.07504e-09 6.07863e-09 -9.07575e-09 3.45926e-09 3.48719e-09 -5.29751e-09 2.07503e-09 7.73091 5.47488 0.417314 3.48718e-09 -5.29751e-09 2.07504e-09 2.90554 0.965183 0.102902 3.48719e-09 -5.29751e-09 2.07504e-09 10.2786 0.731801 0.0259123 3.48717e-09 -5.29751e-09 2.07505e-09 2.22167 -0.733487 -0.20892 -2.40745e-13 2.10311e-13 -4.04229e-13 -26.2771 7.08079 -48.1557 11.1426 -58.0 -132.937 5.46792 -53.3045 10.87 1.01695e-09 8.40044e-10 2.74085e-09 1.62907e-09 1.36473e-09 4.77419e-09 1.01694e-09 8.40042e-10 2.74087e-09 -7.73091 5.47488 -0.417314 1.01695e-09 8.40043e-10 2.74085e-09 -2.90554 0.965183 -0.102902 1.01694e-09 8.40044e-10 2.74085e-09 -10.2786 0.731801 -0.0259123 1.01695e-09 8.4005e-10 2.74085e-09 -2.22167 -0.733487 0.20892 -2.03217e-16 0.0 -3.88251e-19 5.10338 -0.284101 23.7958 0.0479649 -1.73044 0.430563 -14.6945 -11.8435 -41.5482 2.03217e-16 0.0 3.88251e-19 1.17398 -8.09005 -43.8523 -0.0090367 10.0449 -0.0668006 3.43322 -7.28876 37.376
2.54861 82.6292 55.0123 -7.6594 16.3833 6.2295 6.00471 -13.9913 5.12002 -3.25295 -10.6594 0.759098 0.0733224 8.52689 1.81657 11.7159 13.6952 2.77673 -0.0 0.0 0.0 -0.0 0.0 0.0 -1.30483e-13 2.21176e-13 -3.84677e-13 80.6752 -2.0547 -14.7822 -12.1298 -5.54012 21.8615 -2.82317 42.1698 7.3136 2.95845e-09 -3.45834e-09 8.05881e-10 5.124e-09 -5.89121e-09 1.29176e-09 2.95846e-09 -3.45835e-09 8.05869e-10 7.73091 5.47488 0.417314 2.95845e-09 -3.45835e-09 8.05878e-10 2.90554 0.965183 0.102902 2.95846e-09 -3.45835e-09 8.0588e-10 10.2786 0.731801 0.0259123 2.95844e-09 -3.45835e-09 8.05892e-10 2.22167 -0.733487 -0.20892 -1.3063e-13 2.21168e-13 -3.84872e-13 -26.2473 7.19089 -48.233 11.1443 -58.0013 -132.936 5.44148 -53.2219 10.837 5.19439e-10 5.16073e-10 2.14939e-09 8.01694e-10 8.18377e-10 3.7306e-09 5.1943e-10 5.16071e-10 2.14941e-09 -7.73091 5.47488 -0.417314 5.1944e-10 5.1607e-10 2.14939e-09 -2.90554 0.965183 -0.102902 5.19433e-10 5.16072e-10 2.14939e-09 -10.2786 0.731801 -0.0259123 5.1944e-10 5.16076e-10 2.14938e-09 -2.22167 -0.733487 0.20892 -2.03217e-16 0.0 -3.88251e-19 5.06666 -0.386534 23.7019 0.0471912 -1.71344 0.425494 -14.463 -11.6625 -41.354 2.03217e-16 0.0 3.88251e-19 1.14128 -8.11007 -43.9092 -0.00911964 10.0702 -0.0690297 3.43437 -7.27352 37.5766
2.54173 82.6293 55.0203 -7.6627 16.2433 6.2788 6.00463 -14.0283 5.13838 -3.25246 -10.6633 0.762939 0.111352 8.56472 1.80332 11.6686 13.6219 2.75381 -0.0 0.0 0.0 -0.0 0.0 0.0 -7.70614e-14 2.29004e-13 -3.62484e-13 80.6899 -2.06642 -14.7705 -12.1254 -5.537 21.8528 -2.83135 42.2172 7.32583 2.52516e-09 -2.34087e-09 1.27718e-10 4.35393e-09 -3.96182e-09 1.38529e-10 2.52516e-09 -2.34087e-09 1.27706e-10 7.73091 5.47488 0.417314 2.52516e-09 -2.34087e-09 1.27715e-10 2.90554 0.965183 0.102902 2.52517e-09 -2.34087e-09 1.27719e-10 10.2786 0.731801 0.0259123 2.52515e-09 -2.34087e-09 1.27731e-10 2.22167 -0.733487 -0.20892 -7.72006e-14 2.28995e-13 -3.62683e-13 -26.2287 7.27039 -48.2852 11.1511 -57.9997 -132.924 5.41677 -53.1444 10.8061 2.18033e-10 3.05701e-10 1.68572e-09 3.04906e-10 4.65516e-10 2.91665e-09 2.18024e-10 3.05701e-10 1.68574e-09 -7.73091 5.47488 -0.417314 2.18034e-10 3.05697e-10 1.68572e-09 -2.90554 0.965183 -0.102902 2.18027e-10 3.05699e-10 1.68572e-09 -10.2786 0.731801 -0.0259123 2.18036e-10 3.05702e-10 1.68572e-09 -2.22167 -0.733487 0.20892 -2.03217e-16 0.0 -3.88251e-19 5.05011 -0.456657 23.654 0.0465397 -1.70331 0.421972 -14.2949 -11.5353 -41.2062 2.03217e-16 0.0 3.88251e-19 1.12682 -8.10585 -43.9619 -0.00925366 10.0859 -0.0704081 3.45488 -7.28242 37.766
2.53401 82.6334 55.0377 -7.71 16.124 6.2704 6.0218 -14.0354 5.10315 -3.23432 -10.6638 0.752926 0.145007 8.60104 1.81658 11.6279 13.5599 2.78136 -0.0 0.0 0.0 -0.0 0.0 0.0 -1.17175e-13 2.3508e-13 -3.41973e-13 80.6943 -2.03022 -14.7796 -12.1204 -5.53346 21.8432 -2.83075 42.2136 7.32491 2.26451e-09 -2.37357e-09 3.75217e-10 3.91271e-09 -4.03174e-09 5.73083e-10 2.26452e-09 -2.37358e-09 3.75205e-10 7.73091 5.47488 0.417314 2.26451e-09 -2.37357e-09 3.75216e-10 2.90554 0.965183 0.102902 2.26452e-09 -2.37358e-09 3.75217e-10 10.2786 0.731801 0.0259123 2.2645e-09 -2.37357e-09 3.75227e-10 2.22167 -0.733487 -0.20892 -1.1729e-13 2.3507e-13 -3.42182e-13 -26.2303 7.31219 -48.2994 11.167 -57.9933 -132.893 5.38927 -53.0578 10.7717 2.20115e-10 2.73703e-10 1.43823e-09 3.18931e-10 4.15777e-10 2.48977e-09 2.20107e-10 2.73703e-10 1.43824e-09 -7.73091 5.47488 -0.417314 2.20117e-10 2.737e-10 1.43823e-09 -2.90554 0.965183 -0.102902 2.20109e-10 2.73702e-10 1.43823e-09 -10.2786 0.731801 -0.0259123 2.20118e-10 2.73705e-10 1.43822e-09 -2.22167 -0.733487 0.20892 -2.03217e-16 0.0 -3.88251e-19 5.07042 -0.477337 23.6737 0.0460788 -1.70274 0.420819 -14.2208 -11.4897 -41.1269 2.03217e-16 0.0 3.88251e-19 1.14699 -8.06483 -44.005 -0.00949728 10.0861 -0.070571 3.50197 -7.32425 37.9346
2.52935 82.638 55.0602 -7.7623 16.0092 6.2483 6.05928 -14.0291 5.04247 -3.21296 -10.6637 0.735452 0.180516 8.63713 1.84784 11.5834 13.504 2.84357 -0.0 0.0 0.0 -0.0 0.0 0.0 -2.09338e-13 2.35466e-13 -3.09778e-13 80.6922 -1.97794 -14.8074 -12.1118 -5.52737 21.8266 -2.82754 42.1947 7.32008 1.98636e-09 -2.93797e-09 1.12813e-09 3.4584e-09 -5.03053e-09 1.87823e-09 1.98636e-09 -2.93798e-09 1.12811e-09 7.73091 5.47488 0.417314 1.98636e-09 -2.93797e-09 1.12813e-09 2.90554 0.965183 0.102902 1.98636e-09 -2.93798e-09 1.12812e-09 10.2786 0.731801 0.0259123 1.98635e-09 -2.93797e-09 1.12813e-09 2.22167 -0.733487 -0.20892 -2.09418e-13 2.35454e-13 -3.10002e-13 -26.2431 7.33277 -48.2901 11.188 -57.984 -132.85 5.35819 -52.9594 10.7328 3.72782e-10 3.20649e-10 1.22047e-09 5.89618e-10 5.02328e-10 2.12126e-09 3.72776e-10 3.2065e-10 1.22048e-09 -7.73091 5.47488 -0.417314 3.72785e-10 3.20647e-10 1.22047e-09 -2.90554 0.965183 -0.102902 3.72777e-10 3.20649e-10 1.22046e-09 -10.2786 0.731801 -0.0259123 3.72787e-10 3.20653e-10 1.22046e-09 -2.22167 -0.733487 0.20892 -2.03217e-16 0.0 -3.88251e-19 5.10865 -0.485086 23.7136 0.045732 -1.70446 0.420823 -14.1821 -11.4818 -41.0606 2.03217e-16 0.0 3.88251e-19 1.1845 -8.01097 -44.0489 -0.00968196 10.0817 -0.0701326 3.56927 -7.38855 38.1063
2.52882 82.6387 55.0815 -7.7874 15.8781 6.2621 6.09532 -14.019 4.98258 -3.19621 -10.6621 0.717912 0.218701 8.66832 1.87953 11.5458 13.4529 2.90508 -0.0 0.0 0.0 -0.0 0.0 0.0 -3.01773e-13 2.30236e-13 -2.65757e-13 80.688 -1.96569 -14.8538 -12.0981 -5.5177 21.8001 -2.82864 42.201 7.32171 1.65959e-09 -3.53381e-09 1.94865e-09 2.92281e-09 -6.08667e-09 3.30149e-09 1.65959e-09 -3.53381e-09 1.94864e-09 7.73091 5.47488 0.417314 1.65959e-09 -3.53382e-09 1.94865e-09 2.90554 0.965183 0.102902 1.65959e-09 -3.53381e-09 1.94864e-09 10.2786 0.731801 0.0259123 1.65958e-09 -3.53381e-09 1.94865e-09 2.22167 -0.733487 -0.20892 -3.0182e-13 2.30224e-13 -2.65995e-13 -26.2546 7.33634 -48.2754 11.2083 -57.9748 -132.808 5.33417 -52.8828 10.7027 5.49103e-10 3.75369e-10 9.73421e-10 9.02086e-10 6.03614e-10 1.7034e-09 5.491e-10 3.7537e-10 9.73433e-10 -7.73091 5.47488 -0.417314 5.49107e-10 3.75369e-10 9.73426e-10 -2.90554 0.965183 -0.102902 5.49098e-10 3.7537e-10 9.73422e-10 -10.2786 0.731801 -0.0259123 5.49109e-10 3.75374e-10 9.73417e-10 -2.22167 -0.733487 0.20892 -2.03217e-16 0.0 -3.88251e-19 5.14211 -0.490797 23.7607 0.045397 -1.70791 0.421038 -14.1523 -11.4843 -40.998 2.03217e-16 0.0 3.88251e-19 1.2157 -7.95474 -44.0981 -0.00980594 10.0776 -0.0694526 3.64614 -7.46282 38.2847
2.53339 82.6338 55.0873 -7.7752 15.7573 6.3295 6.10814 -14.0145 4.94973 -3.19195 -10.658 0.707702 0.260432 8.68992 1.89405 11.526 13.4048 2.93053 -0.0 0.0 0.0 -0.0 0.0 0.0 -3.42701e-13 2.19463e-13 -2.09768e-13 80.686 -2.04953 -14.919 -12.0779 -5.50346 21.7609 -2.84101 42.2728 7.3402 1.25311e-09 -3.66082e-09 2.39898e-09 2.23777e-09 -6.32864e-09 4.09038e-09 1.25311e-09 -3.66083e-09 2.39898e-09 7.73091 5.47488 0.417314 1.25312e-09 -3.66083e-09 2.39899e-09 2.90554 0.965183 0.102902 1.25312e-09 -3.66082e-09 2.39898e-09 10.2786 0.731801 0.0259123 1.25311e-09 -3.66082e-09 2.39898e-09 2.22167 -0.733487 -0.20892 -3.42731e-13 2.19454e-13 -2.10016e-13 -26.2523 7.32711 -48.2736 11.2221 -57.9685 -132.78 5.32763 -52.8619 10.6945 6.22146e-10 3.66694e-10 6.3808e-10 1.04146e-09 5.98078e-10 1.12849e-09 6.22144e-10 3.66695e-10 6.38089e-10 -7.73091 5.47488 -0.417314 6.2215e-10 3.66694e-10 6.38086e-10 -2.90554 0.965183 -0.102902 6.2214e-10 3.66696e-10 6.38082e-10 -10.2786 0.731801 -0.0259123 6.22152e-10 3.667e-10 6.38077e-10 -2.22167 -0.733487 0.20892 -2.03217e-16 0.0 -3.88251e-19 5.14815 -0.50535 23.8018 0.0449717 -1.71252 0.420523 -14.1048 -11.4694 -40.93 2.03217e-16 0.0 3.88251e-19 1.21689 -7.90659 -44.1568 -0.0098677 10.0789 -0.0688905 3.7218 -7.53466 38.4734
